HIERARCHY
ROOT mixamorig:Hips
{
	OFFSET 0.000000 201.639420 0.000000
	CHANNELS 6 Xposition Yposition Zposition Xrotation Yrotation Zrotation
	JOINT mixamorig:Spine
	{
		OFFSET 0.006200 19.524994 -2.481800
		CHANNELS 3 Xrotation Yrotation Zrotation
		JOINT mixamorig:Spine1
		{
			OFFSET -0.000900 22.835007 -2.825400
			CHANNELS 3 Xrotation Yrotation Zrotation
			JOINT mixamorig:Spine2
			{
				OFFSET -0.020600 26.552490 -3.193300
				CHANNELS 3 Xrotation Yrotation Zrotation
				JOINT mixamorig:Neck
				{
					OFFSET -0.060000 30.701813 1.352200
					CHANNELS 3 Xrotation Yrotation Zrotation
					JOINT mixamorig:Head
					{
						OFFSET -0.087200 22.547607 3.670900
						CHANNELS 3 Xrotation Yrotation Zrotation
						JOINT mixamorig:HeadTop_End
						{
							OFFSET -0.830600 40.355194 7.893500
							CHANNELS 3 Xrotation Yrotation Zrotation
							End Site
							{
								OFFSET 0.000000 30.592346 0.000000
							}
						}
						JOINT mixamorig:RightEye
						{
							OFFSET -6.302100 18.118591 16.197100
							CHANNELS 3 Xrotation Yrotation Zrotation
							End Site
							{
								OFFSET 0.000000 30.592346 0.000000
							}
						}
						JOINT mixamorig:LeftEye
						{
							OFFSET 6.741500 18.382690 16.401899
							CHANNELS 3 Xrotation Yrotation Zrotation
							End Site
							{
								OFFSET 0.000000 30.592346 0.000000
							}
						}
					}
				}
				JOINT mixamorig:LeftShoulder
				{
					OFFSET 11.924900 18.230499 1.425400
					CHANNELS 3 Xrotation Yrotation Zrotation
					JOINT mixamorig:LeftArm
					{
						OFFSET 25.435989 -0.697632 -5.229300
						CHANNELS 3 Xrotation Yrotation Zrotation
						JOINT mixamorig:LeftForeArm
						{
							OFFSET 54.684776 0.000000 0.000000
							CHANNELS 3 Xrotation Yrotation Zrotation
							JOINT mixamorig:LeftHand
							{
								OFFSET 55.098175 0.000000 0.000000
								CHANNELS 3 Xrotation Yrotation Zrotation
								JOINT mixamorig:LeftHandMiddle1
								{
									OFFSET 23.369751 0.000000 0.000000
									CHANNELS 3 Xrotation Yrotation Zrotation
									JOINT mixamorig:LeftHandMiddle2
									{
										OFFSET 6.378677 0.000000 0.000000
										CHANNELS 3 Xrotation Yrotation Zrotation
										JOINT mixamorig:LeftHandMiddle3
										{
											OFFSET 6.148331 0.000000 0.000000
											CHANNELS 3 Xrotation Yrotation Zrotation
											JOINT mixamorig:LeftHandMiddle4
											{
												OFFSET 6.582504 0.000000 0.000000
												CHANNELS 3 Xrotation Yrotation Zrotation
												End Site
												{
													OFFSET -1.168900 6.395691 1.028606
												}
											}
										}
									}
								}
								JOINT mixamorig:LeftHandThumb1
								{
									OFFSET 7.235672 -3.848206 5.434273
									CHANNELS 3 Xrotation Yrotation Zrotation
									JOINT mixamorig:LeftHandThumb2
									{
										OFFSET 6.568451 -3.792297 3.792300
										CHANNELS 3 Xrotation Yrotation Zrotation
										JOINT mixamorig:LeftHandThumb3
										{
											OFFSET 6.063080 -3.500519 3.500518
											CHANNELS 3 Xrotation Yrotation Zrotation
											JOINT mixamorig:LeftHandThumb4
											{
												OFFSET 4.793182 -2.767334 2.767349
												CHANNELS 3 Xrotation Yrotation Zrotation
												End Site
												{
													OFFSET 0.101639 6.054260 1.275483
												}
											}
										}
									}
								}
								JOINT mixamorig:LeftHandIndex1
								{
									OFFSET 23.101074 -0.309540 4.992809
									CHANNELS 3 Xrotation Yrotation Zrotation
									JOINT mixamorig:LeftHandIndex2
									{
										OFFSET 6.226883 0.000000 0.000000
										CHANNELS 3 Xrotation Yrotation Zrotation
										JOINT mixamorig:LeftHandIndex3
										{
											OFFSET 6.094330 0.000000 0.000000
											CHANNELS 3 Xrotation Yrotation Zrotation
											JOINT mixamorig:LeftHandIndex4
											{
												OFFSET 5.482605 0.000000 0.000000
												CHANNELS 3 Xrotation Yrotation Zrotation
												End Site
												{
													OFFSET -1.427902 5.233032 0.797164
												}
											}
										}
									}
								}
								JOINT mixamorig:LeftHandRing1
								{
									OFFSET 22.299240 0.021149 -3.964172
									CHANNELS 3 Xrotation Yrotation Zrotation
									JOINT mixamorig:LeftHandRing2
									{
										OFFSET 6.321869 0.000000 0.000000
										CHANNELS 3 Xrotation Yrotation Zrotation
										JOINT mixamorig:LeftHandRing3
										{
											OFFSET 5.899796 0.000000 0.000000
											CHANNELS 3 Xrotation Yrotation Zrotation
											JOINT mixamorig:LeftHandRing4
											{
												OFFSET 6.517899 0.000000 0.000000
												CHANNELS 3 Xrotation Yrotation Zrotation
												End Site
												{
													OFFSET -1.637299 6.232208 0.980890
												}
											}
										}
									}
								}
								JOINT mixamorig:LeftHandPinky1
								{
									OFFSET 20.463791 -0.302338 -8.562233
									CHANNELS 3 Xrotation Yrotation Zrotation
									JOINT mixamorig:LeftHandPinky2
									{
										OFFSET 6.908646 0.000000 0.000000
										CHANNELS 3 Xrotation Yrotation Zrotation
										JOINT mixamorig:LeftHandPinky3
										{
											OFFSET 4.622849 0.000000 0.000000
											CHANNELS 3 Xrotation Yrotation Zrotation
											JOINT mixamorig:LeftHandPinky4
											{
												OFFSET 5.216080 0.000000 0.000000
												CHANNELS 3 Xrotation Yrotation Zrotation
												End Site
												{
													OFFSET -0.606308 5.116241 0.814926
												}
											}
										}
									}
								}
							}
						}
					}
				}
				JOINT mixamorig:RightShoulder
				{
					OFFSET -12.001300 18.284088 1.348900
					CHANNELS 3 Xrotation Yrotation Zrotation
					JOINT mixamorig:RightArm
					{
						OFFSET -25.308500 -0.751312 -5.164599
						CHANNELS 3 Xrotation Yrotation Zrotation
						JOINT mixamorig:RightForeArm
						{
							OFFSET -54.684429 0.000000 0.000000
							CHANNELS 3 Xrotation Yrotation Zrotation
							JOINT mixamorig:RightHand
							{
								OFFSET -55.150291 0.000000 0.000000
								CHANNELS 3 Xrotation Yrotation Zrotation
								JOINT mixamorig:RightHandMiddle1
								{
									OFFSET -23.317566 0.000000 0.000000
									CHANNELS 3 Xrotation Yrotation Zrotation
									JOINT mixamorig:RightHandMiddle2
									{
										OFFSET -6.378403 0.000000 0.000000
										CHANNELS 3 Xrotation Yrotation Zrotation
										JOINT mixamorig:RightHandMiddle3
										{
											OFFSET -6.148193 0.000000 0.000000
											CHANNELS 3 Xrotation Yrotation Zrotation
											JOINT mixamorig:RightHandMiddle4
											{
												OFFSET -6.583389 0.000000 0.000000
												CHANNELS 3 Xrotation Yrotation Zrotation
												End Site
												{
													OFFSET 1.171692 6.395905 1.029786
												}
											}
										}
									}
								}
								JOINT mixamorig:RightHandThumb1
								{
									OFFSET -7.190521 -3.860474 5.435846
									CHANNELS 3 Xrotation Yrotation Zrotation
									JOINT mixamorig:RightHandThumb2
									{
										OFFSET -6.567429 -3.791718 3.791708
										CHANNELS 3 Xrotation Yrotation Zrotation
										JOINT mixamorig:RightHandThumb3
										{
											OFFSET -6.062469 -3.500153 3.500166
											CHANNELS 3 Xrotation Yrotation Zrotation
											JOINT mixamorig:RightHandThumb4
											{
												OFFSET -4.792618 -2.767029 2.767022
												CHANNELS 3 Xrotation Yrotation Zrotation
												End Site
												{
													OFFSET -0.100327 6.053253 1.276754
												}
											}
										}
									}
								}
								JOINT mixamorig:RightHandIndex1
								{
									OFFSET -23.048981 -0.310791 4.992554
									CHANNELS 3 Xrotation Yrotation Zrotation
									JOINT mixamorig:RightHandIndex2
									{
										OFFSET -6.227539 0.000000 0.000000
										CHANNELS 3 Xrotation Yrotation Zrotation
										JOINT mixamorig:RightHandIndex3
										{
											OFFSET -6.095047 0.000000 0.000000
											CHANNELS 3 Xrotation Yrotation Zrotation
											JOINT mixamorig:RightHandIndex4
											{
												OFFSET -5.484772 0.000000 0.000000
												CHANNELS 3 Xrotation Yrotation Zrotation
												End Site
												{
													OFFSET 1.420593 5.237305 0.797056
												}
											}
										}
									}
								}
								JOINT mixamorig:RightHandRing1
								{
									OFFSET -22.246323 0.020569 -3.963762
									CHANNELS 3 Xrotation Yrotation Zrotation
									JOINT mixamorig:RightHandRing2
									{
										OFFSET -6.322128 0.000000 0.000000
										CHANNELS 3 Xrotation Yrotation Zrotation
										JOINT mixamorig:RightHandRing3
										{
											OFFSET -5.900024 0.000000 0.000000
											CHANNELS 3 Xrotation Yrotation Zrotation
											JOINT mixamorig:RightHandRing4
											{
												OFFSET -6.518356 0.000000 0.000000
												CHANNELS 3 Xrotation Yrotation Zrotation
												End Site
												{
													OFFSET 1.636398 6.232697 0.982186
												}
											}
										}
									}
								}
								JOINT mixamorig:RightHandPinky1
								{
									OFFSET -20.411011 -0.303314 -8.561701
									CHANNELS 3 Xrotation Yrotation Zrotation
									JOINT mixamorig:RightHandPinky2
									{
										OFFSET -6.907349 0.000000 0.000000
										CHANNELS 3 Xrotation Yrotation Zrotation
										JOINT mixamorig:RightHandPinky3
										{
											OFFSET -4.623840 0.000000 0.000000
											CHANNELS 3 Xrotation Yrotation Zrotation
											JOINT mixamorig:RightHandPinky4
											{
												OFFSET -5.218353 0.000000 0.000000
												CHANNELS 3 Xrotation Yrotation Zrotation
												End Site
												{
													OFFSET 0.602097 5.118835 0.816273
												}
											}
										}
									}
								}
							}
						}
					}
				}
			}
		}
	}
	JOINT mixamorig:LeftUpLeg
	{
		OFFSET 18.168400 -13.561905 -0.039000
		CHANNELS 3 Xrotation Yrotation Zrotation
		JOINT mixamorig:LeftLeg
		{
			OFFSET 0.577358 -80.825211 -3.695000
			CHANNELS 3 Xrotation Yrotation Zrotation
			JOINT mixamorig:LeftFoot
			{
				OFFSET -0.577356 -83.370262 -6.520700
				CHANNELS 3 Xrotation Yrotation Zrotation
				JOINT mixamorig:LeftToeBase
				{
					OFFSET 0.750401 -20.798306 25.135401
					CHANNELS 3 Xrotation Yrotation Zrotation
					JOINT mixamorig:LeftToe_End
					{
						OFFSET -0.000500 0.001200 19.917799
						CHANNELS 3 Xrotation Yrotation Zrotation
						End Site
						{
							OFFSET 0.000000 19.917805 0.000000
						}
					}
				}
			}
		}
	}
	JOINT mixamorig:RightUpLeg
	{
		OFFSET -18.162500 -13.585098 -0.041000
		CHANNELS 3 Xrotation Yrotation Zrotation
		JOINT mixamorig:RightLeg
		{
			OFFSET -0.595024 -80.945297 -3.631900
			CHANNELS 3 Xrotation Yrotation Zrotation
			JOINT mixamorig:RightFoot
			{
				OFFSET 0.595024 -83.218193 -6.561200
				CHANNELS 3 Xrotation Yrotation Zrotation
				JOINT mixamorig:RightToeBase
				{
					OFFSET -0.753601 -20.807106 25.115000
					CHANNELS 3 Xrotation Yrotation Zrotation
					JOINT mixamorig:RightToe_End
					{
						OFFSET 0.000299 0.001700 19.918200
						CHANNELS 3 Xrotation Yrotation Zrotation
						End Site
						{
							OFFSET 0.000000 19.918203 0.000000
						}
					}
				}
			}
		}
	}
}
MOTION
Frames: 4
Frame Time: 0.033333
5.901344 178.809494 -5.751587 21.229683 -4.675538 -28.229981 9.608142 2.283850 -15.833710 6.415457 2.758180 -10.724229 6.218364 2.710308 -10.847286 -1.303603 4.388481 -3.831844 -8.563753 18.410570 -3.900656 -0.000000 0.000001 -0.000001 -0.000000 0.000001 -0.000001 -0.000000 0.000001 -0.000001 0.777250 -2.305047 16.030017 -56.418274 -44.445755 -98.495754 -0.000012 -55.569798 -0.000029 -73.781220 -28.107137 14.172724 0.796779 3.220208 -27.788715 0.800498 3.227236 -27.854657 0.202685 1.661520 -13.908057 -0.000001 0.000001 0.000001 35.234555 -17.219576 -17.236898 29.406843 28.726543 -29.411809 9.113597 14.378709 -9.922558 0.000004 -0.000001 -0.000001 0.797682 3.221912 -27.804752 0.799612 3.225520 -27.838620 0.202682 1.661520 -13.908052 0.000000 0.000000 0.000001 0.797681 3.221925 -27.804751 0.799617 3.225527 -27.838618 0.202688 1.661516 -13.908053 -0.000002 -0.000001 0.000002 2.684958 6.814118 -27.459507 0.809066 -0.835568 -28.291871 0.202688 1.661523 -13.908052 -0.000002 0.000001 -0.000003 -0.210517 -5.170963 1.700491 14.667263 61.488095 0.401572 -0.000043 71.415495 0.000039 -22.805879 1.091324 -16.721657 3.635318 -6.110994 61.464504 7.728632 -6.904490 96.464469 2.305156 -5.174767 47.998768 0.000001 -0.000001 -0.000000 40.606639 -3.110503 26.124234 -37.849483 -44.264998 -46.874946 -12.282898 -22.415199 -17.633366 0.000000 0.000001 0.000001 3.635327 -6.111000 61.464497 7.728592 -6.904439 96.464456 2.305154 -5.174785 47.998755 0.000003 -0.000001 -0.000001 3.635331 -6.111013 61.464497 7.728615 -6.904480 96.464456 2.305149 -5.174769 47.998755 -0.000002 0.000001 0.000001 3.635323 -6.110994 61.464504 7.728612 -6.904464 96.464462 2.305129 -5.174776 47.998755 0.000000 0.000000 0.000001 -75.552500 -8.050843 26.593803 62.865013 -9.017413 9.900291 -13.246476 -3.014992 -2.924294 -0.000034 0.000000 -0.000002 -0.000000 0.000000 -0.000000 -38.662388 -33.465618 10.346880 40.988174 -10.962302 0.863640 -11.921183 -8.097767 8.106937 -0.051588 -0.000027 -0.000007 -0.000000 -0.000000 0.000000 
6.009079 179.039612 -5.851776 20.837516 -5.205836 -27.508129 9.731397 2.208711 -15.665939 6.513380 2.703073 -10.579898 6.322410 2.657528 -10.702799 0.673068 4.306523 -3.266604 -6.674020 18.605247 -2.395784 0.000001 0.000004 -0.000003 0.000001 0.000004 -0.000003 0.000001 0.000004 -0.000003 0.690888 -2.014372 15.915825 -55.253816 -45.530068 -97.499058 0.000028 -55.570341 0.000018 -74.790462 -26.630947 14.525292 0.796779 3.220209 -27.788719 0.800496 3.227236 -27.854650 0.202684 1.661519 -13.908054 -0.000001 -0.000000 0.000003 35.234552 -17.219578 -17.236901 29.406854 28.726546 -29.411812 9.113597 14.378711 -9.922559 -0.000002 -0.000000 0.000001 0.797682 3.221913 -27.804756 0.799611 3.225521 -27.838617 0.202682 1.661520 -13.908057 -0.000000 -0.000001 0.000005 0.797681 3.221924 -27.804756 0.799616 3.225527 -27.838620 0.202688 1.661517 -13.908058 -0.000001 0.000000 -0.000000 2.684957 6.814115 -27.459510 0.809063 -0.835569 -28.291873 0.202688 1.661523 -13.908055 -0.000002 -0.000000 0.000002 -0.155012 -4.363807 0.367779 13.497446 62.123111 3.122876 -0.000049 70.178179 0.000035 -24.421449 1.460736 -16.760178 3.635317 -6.110991 61.464504 7.728631 -6.904489 96.464476 2.305152 -5.174768 47.998768 0.000005 -0.000001 -0.000000 40.606632 -3.110501 26.124237 -37.849480 -44.264994 -46.874946 -12.282900 -22.415200 -17.633368 -0.000002 0.000001 0.000002 3.635323 -6.111001 61.464504 7.728594 -6.904443 96.464456 2.305154 -5.174787 47.998758 -0.000003 0.000000 -0.000001 3.635328 -6.111013 61.464504 7.728613 -6.904482 96.464449 2.305145 -5.174772 47.998758 0.000000 0.000000 0.000000 3.635318 -6.110992 61.464504 7.728615 -6.904466 96.464456 2.305125 -5.174775 47.998755 -0.000002 -0.000000 0.000000 -75.181682 -6.985977 26.975655 62.650702 -9.091418 9.905210 -13.254861 -2.897211 -2.804103 -0.000023 0.000003 -0.000000 0.000000 -0.000000 -0.000000 -38.760258 -32.740877 9.893548 40.936472 -10.921753 1.005872 -11.778271 -7.808469 7.980635 -0.048737 0.000020 -0.000002 -0.000000 -0.000002 0.000000 
5.993347 179.234787 -5.953369 20.362664 -5.942434 -26.858006 9.814289 2.127394 -15.493234 6.594594 2.652881 -10.421924 6.411274 2.612878 -10.543025 2.429349 4.322316 -2.709914 -4.269448 19.101923 -0.941314 -0.000000 0.000001 -0.000000 -0.000000 0.000001 -0.000000 -0.000000 0.000001 -0.000000 0.508333 -1.589147 15.596945 -53.940692 -46.306610 -96.618633 0.000020 -55.430943 0.000013 -75.233782 -25.343762 14.969063 0.796779 3.220209 -27.788717 0.800498 3.227235 -27.854655 0.202687 1.661521 -13.908057 0.000001 0.000000 0.000004 35.234555 -17.219578 -17.236898 29.406847 28.726546 -29.411809 9.113592 14.378711 -9.922558 0.000001 -0.000001 -0.000002 0.797683 3.221912 -27.804754 0.799609 3.225520 -27.838617 0.202682 1.661520 -13.908055 -0.000001 -0.000002 0.000002 0.797681 3.221924 -27.804754 0.799618 3.225526 -27.838620 0.202685 1.661518 -13.908056 -0.000000 -0.000000 -0.000001 2.684957 6.814116 -27.459507 0.809065 -0.835571 -28.291870 0.202684 1.661524 -13.908056 -0.000001 0.000001 -0.000000 -0.051047 -3.465726 -0.784550 12.848174 62.959222 5.024405 -0.000043 68.644583 0.000053 -26.010684 2.328342 -16.696525 3.635319 -6.110993 61.464504 7.728633 -6.904491 96.464476 2.305149 -5.174768 47.998772 -0.000001 0.000000 -0.000001 40.606636 -3.110500 26.124237 -37.849476 -44.265005 -46.874946 -12.282902 -22.415200 -17.633368 -0.000002 -0.000002 -0.000001 3.635323 -6.111000 61.464504 7.728590 -6.904440 96.464449 2.305156 -5.174786 47.998755 0.000002 0.000000 -0.000001 3.635327 -6.111013 61.464497 7.728608 -6.904479 96.464456 2.305149 -5.174769 47.998755 -0.000004 0.000000 -0.000001 3.635325 -6.110992 61.464504 7.728613 -6.904464 96.464462 2.305124 -5.174772 47.998751 -0.000003 -0.000000 -0.000000 -74.700550 -6.158757 27.481083 62.514966 -9.199340 9.912991 -13.315387 -2.474023 -2.794979 -0.000046 0.000004 0.000002 -0.000000 0.000001 -0.000000 -38.741024 -31.970387 9.744458 40.869858 -10.919237 1.034003 -11.635664 -7.456281 7.860331 -0.047213 0.000020 0.000002 -0.000000 0.000002 0.000000 
5.923676 179.386246 -6.202248 19.940035 -6.788715 -26.248659 9.915640 2.006264 -15.275358 6.704039 2.574689 -10.233255 6.530225 2.545520 -10.351016 3.846970 4.385908 -2.135440 -1.774429 19.801886 0.299077 -0.000000 -0.000001 -0.000002 -0.000000 -0.000001 -0.000002 -0.000000 -0.000001 -0.000002 0.277183 -1.078326 15.200690 -52.418994 -46.976255 -95.523631 -0.000037 -55.609061 -0.000028 -75.148808 -24.076442 15.666977 0.796779 3.220206 -27.788715 0.800497 3.227234 -27.854659 0.202687 1.661522 -13.908058 -0.000002 0.000000 -0.000000 35.234552 -17.219576 -17.236894 29.406843 28.726543 -29.411809 9.113600 14.378709 -9.922555 -0.000001 0.000001 -0.000000 0.797682 3.221911 -27.804754 0.799609 3.225519 -27.838620 0.202683 1.661521 -13.908056 0.000000 -0.000001 -0.000002 0.797679 3.221923 -27.804749 0.799618 3.225529 -27.838622 0.202688 1.661518 -13.908060 -0.000001 -0.000001 0.000003 2.684956 6.814116 -27.459503 0.809066 -0.835565 -28.291871 0.202687 1.661524 -13.908060 0.000000 0.000001 0.000001 0.105409 -2.411024 -1.926657 11.570876 63.627993 7.389609 0.000103 67.321227 -0.000079 -27.410167 3.331412 -16.715812 3.635316 -6.110994 61.464497 7.728633 -6.904489 96.464469 2.305156 -5.174769 47.998765 0.000001 -0.000000 -0.000001 40.606632 -3.110499 26.124237 -37.849483 -44.265001 -46.874943 -12.282900 -22.415197 -17.633364 0.000000 -0.000001 -0.000001 3.635322 -6.110998 61.464497 7.728592 -6.904443 96.464456 2.305155 -5.174785 47.998762 -0.000001 -0.000000 -0.000001 3.635328 -6.111013 61.464504 7.728616 -6.904479 96.464456 2.305151 -5.174769 47.998755 -0.000002 0.000001 -0.000001 3.635324 -6.110992 61.464497 7.728613 -6.904469 96.464456 2.305128 -5.174772 47.998755 -0.000002 0.000000 0.000001 -74.205477 -5.609266 27.872433 62.387802 -9.309534 9.919504 -13.324512 -1.687571 -2.873184 -0.000056 -0.000003 0.000000 -0.000000 -0.000000 0.000000 -38.836845 -31.232512 9.726053 40.824351 -10.951132 0.961582 -11.457526 -7.073856 7.741916 -0.046479 0.000017 0.000004 -0.000000 -0.000000 0.000000 
